<svg width="256" height="256" viewBox="0 0 256 256" fill="none" xmlns="http://www.w3.org/2000/svg">
<path d="M245.333 106.667H149.333V10.6667C149.333 4.77333 144.56 0 138.667 0H117.333C111.44 0 106.667 4.77333 106.667 10.6667V106.667H10.6667C4.77333 106.667 0 111.44 0 117.333V138.667C0 144.56 4.77333 149.333 10.6667 149.333H106.667V245.333C106.667 251.227 111.44 256 117.333 256H138.667C144.56 256 149.333 251.227 149.333 245.333V149.333H245.333C251.227 149.333 256 144.56 256 138.667V117.333C256 111.44 251.227 106.667 245.333 106.667Z" fill="#FF9EC6"/>
</svg>
