<svg width="256" height="256" viewBox="0 0 256 256" fill="none" xmlns="http://www.w3.org/2000/svg">
<path d="M128 0C57.2903 0 0 57.2903 0 128C0 198.71 57.2903 256 128 256C198.71 256 256 198.71 256 128C256 57.2903 198.71 0 128 0ZM169.29 86.7097C178.426 86.7097 185.806 94.0903 185.806 103.226C185.806 112.361 178.426 119.742 169.29 119.742C160.155 119.742 152.774 112.361 152.774 103.226C152.774 94.0903 160.155 86.7097 169.29 86.7097ZM86.7097 86.7097C95.8452 86.7097 103.226 94.0903 103.226 103.226C103.226 112.361 95.8452 119.742 86.7097 119.742C77.5742 119.742 70.1935 112.361 70.1935 103.226C70.1935 94.0903 77.5742 86.7097 86.7097 86.7097ZM187.252 174.555C172.542 192.206 150.968 202.323 128 202.323C105.032 202.323 83.4581 192.206 68.7484 174.555C61.729 166.142 74.4258 155.613 81.4452 163.974C93.0064 177.858 109.935 185.755 128 185.755C146.065 185.755 162.994 177.806 174.555 163.974C181.471 155.613 194.219 166.142 187.252 174.555Z" fill="#949494"/>
</svg>
